<?xml version="1.0" encoding="UTF-8" standalone="no"?>
<!DOCTYPE svg PUBLIC "-//W3C//DTD SVG 1.1//EN" "http://www.w3.org/Graphics/SVG/1.1/DTD/svg11.dtd">
<svg width="100%" height="100%" viewBox="0 0 120 120" version="1.1" xmlns="http://www.w3.org/2000/svg" xmlns:xlink="http://www.w3.org/1999/xlink" xml:space="preserve" xmlns:serif="http://www.serif.com/" style="fill-rule:evenodd;clip-rule:evenodd;stroke-linejoin:round;stroke-miterlimit:2;">
    <g>
        <g transform="matrix(-1,0,0,-1,120,120)">
            <circle cx="60" cy="60" r="60" style="fill:rgb(22,99,163);"/>
        </g>
        <g transform="matrix(1.24066,0,0,1.52705,-14.888,-31.9137)">
            <clipPath id="_clip1">
                <path d="M60.361,99.482C33.67,99.482 12,81.876 12,60.19C12,38.505 33.67,20.899 60.361,20.899C87.052,20.899 108.722,38.505 108.722,60.19C108.722,81.876 87.052,99.482 60.361,99.482Z"/>
            </clipPath>
            <g clip-path="url(#_clip1)">
                <g transform="matrix(0.645596,0,0,0.338728,-46.3358,24.3598)">
                    <g transform="matrix(34.4432,0,0,53.3351,103,150.178)">
                        <path d="M0.073,-0.716L0.294,-0.716L0.294,-0.176L0.64,-0.176L0.64,-0L0.073,-0L0.073,-0.716Z" style="fill:white;fill-rule:nonzero;"/>
                    </g>
                    <g transform="matrix(34.4432,0,0,53.3351,125.973,150.178)">
                        <path d="M0.514,-0.118L0.262,-0.118L0.227,-0L0.001,-0L0.27,-0.716L0.511,-0.716L0.78,-0L0.549,-0L0.514,-0.118ZM0.467,-0.273L0.388,-0.53L0.31,-0.273L0.467,-0.273Z" style="fill:white;fill-rule:nonzero;"/>
                    </g>
                    <g transform="matrix(34.4432,0,0,53.3351,152.764,150.178)">
                        <path d="M0.074,-0.716L0.488,-0.716C0.557,-0.716 0.61,-0.699 0.647,-0.665C0.684,-0.63 0.702,-0.588 0.702,-0.538C0.702,-0.495 0.689,-0.459 0.663,-0.429C0.645,-0.409 0.619,-0.393 0.585,-0.381C0.637,-0.368 0.675,-0.347 0.699,-0.317C0.723,-0.287 0.735,-0.249 0.735,-0.204C0.735,-0.167 0.727,-0.133 0.709,-0.104C0.692,-0.074 0.669,-0.05 0.639,-0.033C0.62,-0.022 0.592,-0.015 0.555,-0.01C0.505,-0.003 0.472,-0 0.456,-0L0.074,-0L0.074,-0.716ZM0.297,-0.435L0.393,-0.435C0.428,-0.435 0.452,-0.441 0.465,-0.453C0.479,-0.465 0.485,-0.482 0.485,-0.504C0.485,-0.525 0.479,-0.542 0.465,-0.553C0.452,-0.565 0.428,-0.571 0.395,-0.571L0.297,-0.571L0.297,-0.435ZM0.297,-0.154L0.41,-0.154C0.448,-0.154 0.475,-0.161 0.49,-0.174C0.506,-0.188 0.514,-0.206 0.514,-0.229C0.514,-0.25 0.506,-0.267 0.49,-0.28C0.475,-0.292 0.448,-0.299 0.409,-0.299L0.297,-0.299L0.297,-0.154Z" style="fill:white;fill-rule:nonzero;"/>
                    </g>
                    <g transform="matrix(34.4432,0,0,53.3351,179.555,150.178)">
                        <path d="M0.073,-0.716L0.666,-0.716L0.666,-0.563L0.294,-0.563L0.294,-0.449L0.639,-0.449L0.639,-0.303L0.294,-0.303L0.294,-0.162L0.676,-0.162L0.676,-0L0.073,-0L0.073,-0.716Z" style="fill:white;fill-rule:nonzero;"/>
                    </g>
                    <g transform="matrix(34.4432,0,0,53.3351,204.429,150.178)">
                        <path d="M0.073,-0.716L0.294,-0.716L0.294,-0.176L0.64,-0.176L0.64,-0L0.073,-0L0.073,-0.716Z" style="fill:white;fill-rule:nonzero;"/>
                    </g>
                </g>
                <g transform="matrix(0.80602,0,0,0.654856,17.6421,20.8989)">
                    <path d="M23.137,69.161C24.119,68.697 25.083,68.194 26.042,67.684L26.063,67.673L23.043,69.161L-21.996,69.161L-21.996,28.438L71.348,28.438L71.348,43.569L71.202,43.704C71.3,43.62 71.348,43.569 71.348,43.569C67.729,50.355 45.946,61.469 23.137,69.161Z" style="fill-opacity:0.5;"/>
                </g>
                <g transform="matrix(1,0,0,1,-16.9264,-12.4423)">
                    <g transform="matrix(0.841469,0,0,0.940466,12.7381,4.77369)">
                        <path d="M2,74.356L45.142,74.356L87.405,59.214L91.412,56.536L91.412,46L2,46L2,74.356Z" style="fill:white;"/>
                    </g>
                    <g transform="matrix(0.269131,0,0,0.372272,12.4907,13.4442)">
                        <g transform="matrix(82.623,0,0,48.5294,103,146.738)">
                            <path d="M0.076,-0L0.076,-0.716L0.445,-0.716C0.513,-0.716 0.565,-0.71 0.602,-0.698C0.638,-0.687 0.667,-0.665 0.689,-0.633C0.711,-0.601 0.722,-0.563 0.722,-0.517C0.722,-0.477 0.714,-0.443 0.697,-0.414C0.68,-0.385 0.657,-0.362 0.627,-0.344C0.608,-0.333 0.582,-0.323 0.549,-0.316C0.576,-0.307 0.595,-0.298 0.607,-0.29C0.615,-0.284 0.627,-0.271 0.642,-0.252C0.658,-0.233 0.668,-0.218 0.673,-0.208L0.78,-0L0.53,-0L0.412,-0.219C0.397,-0.247 0.384,-0.265 0.372,-0.274C0.356,-0.285 0.338,-0.291 0.318,-0.291L0.298,-0.291L0.298,-0L0.076,-0ZM0.298,-0.426L0.392,-0.426C0.402,-0.426 0.421,-0.429 0.45,-0.436C0.465,-0.438 0.477,-0.446 0.486,-0.458C0.495,-0.47 0.5,-0.484 0.5,-0.5C0.5,-0.523 0.493,-0.54 0.478,-0.553C0.463,-0.565 0.436,-0.571 0.396,-0.571L0.298,-0.571L0.298,-0.426Z" style="fill:rgb(22,99,163);fill-rule:nonzero;"/>
                        </g>
                        <g transform="matrix(82.623,0,0,48.5294,167.267,146.738)">
                            <path d="M0.073,-0.716L0.666,-0.716L0.666,-0.563L0.294,-0.563L0.294,-0.449L0.639,-0.449L0.639,-0.303L0.294,-0.303L0.294,-0.162L0.676,-0.162L0.676,-0L0.073,-0L0.073,-0.716Z" style="fill:rgb(22,99,163);fill-rule:nonzero;"/>
                        </g>
                    </g>
                    <g transform="matrix(0.940466,0,0,0.940466,3.1354,4.77369)">
                        <path d="M50.681,74.356C70.23,68.999 88.899,61.261 92,56.536C92,56.536 88.768,59.348 79.906,56.161C68.728,67.498 50.681,74.356 50.681,74.356Z" style="fill:rgb(22,99,163);"/>
                    </g>
                    <g transform="matrix(0.940466,0,0,0.940466,3.1354,4.77369)">
                        <path d="M50.681,74.356C70.23,68.999 88.899,61.261 92,56.536C92,56.536 88.768,59.348 79.906,56.161C68.728,67.498 50.681,74.356 50.681,74.356Z" style="fill:white;fill-opacity:0.5;"/>
                    </g>
                </g>
            </g>
        </g>
        <g transform="matrix(-1,0,0,-1,120,120)">
            <path d="M60,0C93.115,0 120,26.885 120,60C120,93.115 93.115,120 60,120C26.885,120 0,93.115 0,60C0,26.885 26.885,0 60,0ZM60,3C91.459,3 117,28.541 117,60C117,91.459 91.459,117 60,117C28.541,117 3,91.459 3,60C3,28.541 28.541,3 60,3Z" style="fill:rgb(22,99,163);"/>
        </g>
    </g>
</svg>
